inDegrees=yes
name=ik_Shooting_orientations.mot
DataType=double
version=3
OpenSimVersion=4.3-2021-08-27-4bc7ad9
endheader
time	pelvis_tilt	pelvis_list	pelvis_rotation	pelvis_tx	pelvis_ty	pelvis_tz	hip_flexion_r	hip_adduction_r	hip_rotation_r	knee_angle_r	knee_angle_r_beta	ankle_angle_r	subtalar_angle_r	mtp_angle_r	hip_flexion_l	hip_adduction_l	hip_rotation_l	knee_angle_l	knee_angle_l_beta	ankle_angle_l	subtalar_angle_l	mtp_angle_l	lumbar_extension	lumbar_bending	lumbar_rotation	arm_flex_r	arm_add_r	arm_rot_r	elbow_flex_r	pro_sup_r	wrist_flex_r	wrist_dev_r	arm_flex_l	arm_add_l	arm_rot_l	elbow_flex_l	pro_sup_l	wrist_flex_l	wrist_dev_l
8.039999999999873	-12.99486169021872	-72.46311660464748	-17.42898953111945	0	0.93	0	-29.99801986518709	29.99747652856342	-39.99826185324843	54.93096452388001	0.9587261922379056	-4.99977411676939	1.346666688338177e-16	-2.117343656281742e-16	44.18197341584155	-49.94304686951126	-39.99743331458835	54.93096452388004	0.9587261922379059	-4.999774116968567	-4.820167423818865e-17	-1.004329839483111e-16	0	1.378370421405057e-24	6.516669224219653e-35	7.045476349092941e-18	1.719443611931983e-25	1.155301871697823e-16	1.502862737825646e-16	1.502717261601157e-16	9.125361657616582e-20	1.931288167701927e-20	2.100083180043951e-17	-1.899494958095191e-16	-8.566960835502071e-18	1.503092433153627e-16	1.502716549565443e-16	-1.871675310277296e-20	1.48342307493907e-21
8.049999999999873	15.79497682398534	-40.67316850378467	17.25765849122333	0	0.93	0	-29.99800948967858	29.99546121717508	-39.99889836096539	55.01629410315422	0.9602154743455821	-4.999795334968756	-5.688168448713622e-18	3.871956239411014e-18	-17.21625951313221	3.349504904749811	-39.99829593792725	55.01629410315424	0.9602154743455824	-4.999795335149209	1.033695042451195e-17	7.576993923057879e-19	-3.908712672586409e-42	-1.018229566284533e-24	1.151463431018028e-35	9.01688535886307e-20	-2.21449047863451e-28	-7.365398083206519e-18	0	0	-9.560365672074952e-25	-8.439445339872518e-25	-7.937245548610393e-18	-7.335078000526097e-18	-5.571472709088888e-18	0	0	-1.212763482002246e-24	-7.412537680693514e-25
8.059999999999873	-13.38864762666965	-72.35215607240036	-17.69274993686948	0	0.93	0	-29.99802037939711	29.99748726946154	-39.99825941719505	55.07520387825914	0.9612436438827722	-4.99980881497307	0	0	43.76533193151219	-49.92158339916359	-39.99744336345066	55.07520387825916	0.9612436438827725	-4.999808815141662	0	0	0	0	0	0	0	0	1.235237673272072e-46	4.079531412991229e-46	0	0	0	0	0	1.235237673272072e-46	4.079531412991229e-46	0	0
8.069999999999872	10.50300678174138	-44.70583070178694	15.6763335290522	0	0.93	0	-29.99791932992213	29.9964822827792	-39.99885561901772	55.09794464701236	0.9616405451719506	-4.999813850924485	0	0	-8.687124026500559	-1.472912268158719	-39.998246369775	55.09794464701238	0.961640545171951	-4.999813851088645	0	0	0	0	0	0	0	0	0	0	0	0	0	0	0	0	0	0	0
8.079999999999872	6.349906745949294	-23.4636417783034	5.143254217260467	0	0.93	0	-29.99688552606838	29.98832138597399	-39.99887841554506	55.12196248027995	0.962059735441665	-4.999818858308295	-1.389011504651369e-15	-4.634704441982299e-16	-29.98215868840746	29.93600713800375	-39.99804464545171	55.12196248027997	0.9620597354416653	-4.999818858461627	1.067445395418128e-15	7.486197944119519e-17	0	-2.934288073076789e-29	-1.012796079763662e-38	2.132333792014546e-16	1.694684011885974e-26	-5.135031081978572e-17	1.720241199966215e-06	1.721082812413428e-06	8.214413803422806e-25	-9.999305701103291e-25	8.197922490112042e-17	-2.978339994647102e-18	-5.64919296619255e-16	1.721506180405984e-06	1.721082777949199e-06	-1.684807102040953e-24	-7.039634986571564e-25
8.089999999999872	10.25937732180079	-43.85437661288693	15.20405317954629	0	0.93	0	-29.99790179363502	29.99641039538647	-39.99885690366566	55.18197621642098	0.963107172733749	-4.99983118666698	0	0	-10.13551339426601	0.1784608692802115	-39.99823948072068	55.18197621642099	0.9631071727337494	-4.999831186809859	0	0	0	0	0	0	0	0	1.3047364878523e-38	0	0	0	0	0	0	1.3047364878523e-38	0	0	0
8.099999999999872	3.977651146188037	-26.848072328466	-1.493230804078131	0	0.93	0	-29.99671295826635	29.98843581024506	-39.9987756078282	55.18977246856307	0.9632432430029443	-4.999832731174639	0	0	-29.96592796021781	29.96512110604894	-39.99820708379874	55.18977246856309	0.9632432430029446	-4.999832731316205	0	0	0	0	0	0	1.394948887806703e-36	0	0	0	0	0	0	0	0	0	0	0	0
8.109999999999872	11.58534525742361	-49.9558116769736	22.61488784045098	0	0.93	0	-29.99807905610552	29.99737128944936	-39.99887115656188	55.28989853591022	0.9649907725452256	-4.999851951259806	0	0	-1.496833983970175	-9.752544713043745	-39.99796841830452	55.28989853591024	0.9649907725452259	-4.999851951385088	0	0	0	0	0	0	0	0	4.716471408890748e-39	2.676219680673246e-39	0	0	0	0	0	4.716471408890748e-39	2.676219680673246e-39	0	0
8.119999999999871	26.73933001104412	-53.88938174333789	45.35479146529173	0	0.93	0	-29.99846138693736	29.99797773291267	-39.99896784239314	55.29335240609726	0.9650510539519259	-4.999852571807835	0	0	0.1302321931727348	-20.83122476751627	-39.99716938689963	55.29335240609728	0.9650510539519263	-4.999852571932592	0	0	0	0	0	0	0	0	0	0	0	0	0	0	0	0	0	0	0
8.129999999999871	9.663997678341607	-44.03768959775919	14.57334014780604	0	0.93	0	-29.99790917191204	29.99651380928236	-39.99884778167095	55.29913090861849	0.9651519078467562	-4.999853615480149	-7.648580169433077e-18	1.737108318174309e-22	-8.803169040660933	-0.2038187596368757	-39.99822714943823	55.29913090861851	0.9651519078467565	-4.999853615605068	1.616527482960855e-21	1.110738036539589e-22	0	7.23752947398836e-24	2.691954849980612e-42	9.705613746138558e-17	-9.877425720319464e-28	-2.157251687214867e-17	2.20725705623598e-16	2.207257597891803e-16	-5.489616930160436e-24	-1.422845647489218e-25	6.825099008779759e-18	2.550827973439364e-17	6.938488935331458e-17	2.207257066102791e-16	2.207257597723665e-16	-7.257778357408792e-24	-1.164310796674786e-25
8.139999999999871	9.56544828645244	-44.08955579686785	14.48924449036899	0	0.93	0	-29.99791025342804	29.99654211527112	-39.99884480371084	55.30417944937399	0.9652400215053608	-4.999854390531735	0	0	-8.388154181696615	-0.474316312903401	-39.9982238005179	55.30417944937401	0.9652400215053611	-4.999854390655989	0	0	0	0	0	0	0	0	0	1.052357267868557e-38	0	0	0	0	0	0	1.052357267868557e-38	0	0
8.149999999999871	-14.83231019740572	-71.19061245417183	-19.25201679322122	0	0.93	0	-29.99801967130073	29.9975005629911	-39.99823303886024	55.31903114042512	0.9654992324136921	-4.999857031285698	0	0	43.58742207289539	-49.42989677396314	-39.99744023886341	55.31903114042515	0.9654992324136924	-4.999857031407687	0	0	0	0	0	0	0	0	0	0	0	0	0	0	0	0	0	0	0
